<?xml version="1.0" encoding="utf-8"?>
<!-- Generator: Adobe Illustrator 18.1.1, SVG Export Plug-In . SVG Version: 6.00 Build 0)  -->
<svg version="1.1" id="Layer_1" xmlns="http://www.w3.org/2000/svg" xmlns:xlink="http://www.w3.org/1999/xlink" x="0px" y="0px"
	 viewBox="0 0 511.7 149.4" enable-background="new 0 0 511.7 149.4" xml:space="preserve">
<g>
	<path fill="#FFFFFF" d="M138.2,64.8c1.5-0.3,3.2-0.5,5-0.7c1.8-0.2,3.6-0.2,5.4-0.2c1.9,0,3.8,0.2,5.7,0.5c1.9,0.3,3.6,0.9,5.1,1.8
		c1.5,0.9,2.7,2.2,3.7,3.8c1,1.6,1.4,3.8,1.4,6.4c0,2.4-0.4,4.4-1.2,6c-0.8,1.6-1.9,3-3.3,4c-1.4,1-2.9,1.8-4.7,2.3
		c-1.7,0.5-3.6,0.7-5.4,0.7c-0.2,0-0.5,0-0.9,0c-0.4,0-0.8,0-1.2,0c-0.4,0-0.9,0-1.3-0.1c-0.4,0-0.7-0.1-0.9-0.1v13h-7.4V64.8z
		 M149.3,70.3c-0.7,0-1.4,0-2.1,0.1c-0.6,0.1-1.2,0.1-1.6,0.2v12.3c0.1,0,0.4,0.1,0.6,0.1c0.3,0,0.6,0.1,0.9,0.1c0.3,0,0.6,0,0.9,0
		c0.3,0,0.5,0,0.7,0c1,0,1.9-0.1,2.9-0.3c1-0.2,1.8-0.5,2.6-1c0.8-0.5,1.4-1.2,1.8-2c0.5-0.9,0.7-2,0.7-3.4c0-1.2-0.2-2.2-0.6-2.9
		c-0.4-0.8-1-1.4-1.7-1.9c-0.7-0.5-1.5-0.8-2.4-1C151.1,70.4,150.2,70.3,149.3,70.3z"/>
	<path fill="#FFFFFF" d="M193.1,102.3h-24V64.4h7.4v31.3h16.6V102.3z"/>
	<path fill="#FFFFFF" d="M217.5,64.4h7v24.4c0,2.5-0.3,4.6-1,6.3c-0.6,1.8-1.6,3.2-2.7,4.4c-1.2,1.2-2.6,2-4.2,2.5
		c-1.7,0.5-3.5,0.8-5.5,0.8c-9.6,0-14.4-4.4-14.4-13.1V64.4h7.4v23.9c0,1.5,0.1,2.7,0.4,3.8c0.3,1,0.7,1.9,1.3,2.5
		c0.6,0.6,1.3,1.1,2.2,1.4c0.9,0.3,1.9,0.4,3,0.4c2.3,0,3.9-0.6,4.9-1.9c1-1.3,1.5-3.3,1.5-6.1V64.4z"/>
	<path fill="#FFFFFF" d="M247.2,92.1c0-1.2-0.4-2.1-1.3-2.8c-0.8-0.7-1.9-1.4-3.2-2c-1.3-0.6-2.7-1.2-4.2-1.8
		c-1.5-0.6-2.9-1.4-4.2-2.3c-1.3-0.9-2.3-2.1-3.2-3.4c-0.8-1.4-1.3-3.1-1.3-5.2c0-1.8,0.3-3.4,0.9-4.8c0.6-1.4,1.5-2.5,2.6-3.4
		c1.1-0.9,2.5-1.6,4-2c1.6-0.4,3.3-0.6,5.2-0.6c2.2,0,4.3,0.2,6.2,0.6c1.9,0.4,3.6,0.9,4.8,1.6l-2.3,6.2c-0.8-0.5-2-1-3.6-1.4
		c-1.6-0.4-3.3-0.6-5.1-0.6c-1.7,0-3.1,0.3-4,1c-0.9,0.7-1.4,1.6-1.4,2.8c0,1.1,0.4,2,1.3,2.7c0.8,0.7,1.9,1.4,3.2,2
		c1.3,0.6,2.7,1.2,4.2,1.9c1.5,0.6,2.9,1.4,4.2,2.4c1.3,0.9,2.3,2.1,3.2,3.4c0.8,1.4,1.3,3,1.3,5.1c0,2-0.3,3.8-1,5.2
		c-0.7,1.5-1.6,2.7-2.8,3.7c-1.2,1-2.7,1.7-4.4,2.2c-1.7,0.5-3.6,0.7-5.7,0.7c-2.7,0-5.1-0.3-7.1-0.8c-2.1-0.5-3.6-1-4.5-1.5
		l2.4-6.3c0.4,0.2,0.9,0.5,1.5,0.7c0.6,0.3,1.3,0.5,2.1,0.7c0.8,0.2,1.6,0.4,2.5,0.5c0.9,0.1,1.8,0.2,2.7,0.2c2.2,0,3.9-0.4,5.1-1.1
		C246.6,94.8,247.2,93.6,247.2,92.1z"/>
	<path fill="#FFFFFF" d="M259.5,64.8c1.5-0.3,3.2-0.5,5-0.7c1.8-0.2,3.6-0.2,5.4-0.2c1.9,0,3.8,0.2,5.7,0.5c1.9,0.3,3.6,0.9,5.1,1.8
		c1.5,0.9,2.7,2.2,3.7,3.8c1,1.6,1.4,3.8,1.4,6.4c0,2.4-0.4,4.4-1.2,6c-0.8,1.6-1.9,3-3.3,4c-1.4,1-2.9,1.8-4.7,2.3
		s-3.6,0.7-5.4,0.7c-0.2,0-0.5,0-0.9,0c-0.4,0-0.8,0-1.2,0c-0.4,0-0.9,0-1.3-0.1c-0.4,0-0.7-0.1-0.9-0.1v13h-7.4V64.8z M270.6,70.3
		c-0.7,0-1.4,0-2.1,0.1c-0.6,0.1-1.2,0.1-1.6,0.2v12.3c0.1,0,0.4,0.1,0.6,0.1c0.3,0,0.6,0.1,0.9,0.1c0.3,0,0.6,0,0.9,0
		c0.3,0,0.5,0,0.7,0c1,0,1.9-0.1,2.9-0.3c1-0.2,1.8-0.5,2.6-1c0.8-0.5,1.4-1.2,1.8-2c0.5-0.9,0.7-2,0.7-3.4c0-1.2-0.2-2.2-0.6-2.9
		c-0.4-0.8-1-1.4-1.7-1.9c-0.7-0.5-1.5-0.8-2.4-1C272.4,70.4,271.5,70.3,270.6,70.3z"/>
	<path fill="#FFFFFF" d="M314.5,102.3h-24V64.4h7.4v31.3h16.6V102.3z"/>
	<path fill="#FFFFFF" d="M337.6,93.9H326l-2.9,8.4h-7.4l13.6-38.1h5.5l13.6,38.1h-7.8L337.6,93.9z M327.9,88h8.1l-2.8-8.4l-1.1-6
		h-0.3l-1.1,6L327.9,88z"/>
	<path fill="#FFFFFF" d="M369.6,93.9H358l-2.9,8.4h-7.4l13.6-38.1h5.5l13.6,38.1h-7.8L369.6,93.9z M359.9,88h8.1l-2.8-8.4l-1.1-6
		h-0.3l-1.1,6L359.9,88z"/>
	<path fill="#FFFFFF" d="M406.3,71h-11v31.3h-7.4V71h-11.1v-6.6h29.5V71z"/>
	<path fill="#FFFFFF" d="M426.5,92.1c0-1.2-0.4-2.1-1.3-2.8c-0.8-0.7-1.9-1.4-3.2-2c-1.3-0.6-2.7-1.2-4.2-1.8
		c-1.5-0.6-2.9-1.4-4.2-2.3c-1.3-0.9-2.3-2.1-3.2-3.4c-0.8-1.4-1.3-3.1-1.3-5.2c0-1.8,0.3-3.4,0.9-4.8c0.6-1.4,1.5-2.5,2.6-3.4
		c1.1-0.9,2.5-1.6,4-2c1.5-0.4,3.3-0.6,5.2-0.6c2.2,0,4.3,0.2,6.2,0.6c1.9,0.4,3.6,0.9,4.8,1.6l-2.3,6.2c-0.8-0.5-2-1-3.6-1.4
		s-3.3-0.6-5.1-0.6c-1.7,0-3.1,0.3-4,1c-0.9,0.7-1.4,1.6-1.4,2.8c0,1.1,0.4,2,1.3,2.7c0.8,0.7,1.9,1.4,3.2,2
		c1.3,0.6,2.7,1.2,4.2,1.9c1.5,0.6,2.9,1.4,4.2,2.4c1.3,0.9,2.3,2.1,3.2,3.4c0.8,1.4,1.3,3,1.3,5.1c0,2-0.3,3.8-1,5.2
		c-0.7,1.5-1.6,2.7-2.8,3.7c-1.2,1-2.7,1.7-4.4,2.2c-1.7,0.5-3.6,0.7-5.7,0.7c-2.7,0-5.1-0.3-7.1-0.8s-3.6-1-4.5-1.5l2.4-6.3
		c0.4,0.2,0.9,0.5,1.5,0.7s1.3,0.5,2.1,0.7c0.8,0.2,1.6,0.4,2.5,0.5c0.9,0.1,1.8,0.2,2.7,0.2c2.2,0,3.9-0.4,5.1-1.1
		C425.9,94.8,426.5,93.6,426.5,92.1z"/>
	<path fill="#FFFFFF" d="M437.9,98.7c0-1.3,0.4-2.3,1.2-3c0.8-0.7,1.8-1.1,3.1-1.1c1.4,0,2.5,0.4,3.2,1.1c0.8,0.7,1.2,1.7,1.2,3
		c0,1.3-0.4,2.3-1.2,3c-0.8,0.8-1.9,1.1-3.2,1.1c-1.3,0-2.3-0.4-3.1-1.1C438.3,101,437.9,100,437.9,98.7z"/>
	<path fill="#FFFFFF" d="M461.6,82.5l-3-6h-0.3l0.9,6v19.7h-7V64.2h5.4l14.3,20.2l2.9,5.8h0.3l-0.9-5.8V64.4h7v38.1h-5.4L461.6,82.5
		z"/>
	<path fill="#FFFFFF" d="M511.7,102.3h-24V64.4h7.4v31.3h16.6V102.3z"/>
	<path fill="#FFFFFF" d="M148.9,135.9c-0.2,0.8-0.3,1.6-0.4,2.4c-0.1,0.7-0.1,1.4-0.1,2.1c0,0.2,0,0.5,0,0.7c0,0.2,0,0.4,0,0.6h-1.6
		l-0.5-2.8h-0.1c-0.3,0.4-0.6,0.7-1,1.1c-0.4,0.4-0.8,0.7-1.3,1c-0.5,0.3-1,0.6-1.5,0.7c-0.5,0.2-1.1,0.3-1.7,0.3
		c-1.2,0-2.2-0.4-2.9-1.3c-0.7-0.9-1.1-2.3-1.1-4.2c0-1.3,0.2-2.6,0.6-4c0.4-1.4,0.9-2.6,1.6-3.7c0.7-1.1,1.6-2,2.7-2.7
		c1.1-0.7,2.3-1.1,3.7-1.1c0.4,0,0.7,0,1,0c0.3,0,0.6,0.1,0.8,0.1c0.3,0,0.5,0.1,0.7,0.2c0.2,0.1,0.4,0.2,0.7,0.2l1.4-6.8h2.5
		L148.9,135.9z M141.7,139.8c0.5,0,0.9-0.1,1.4-0.4s0.9-0.6,1.4-0.9c0.4-0.4,0.8-0.8,1.1-1.2c0.3-0.4,0.6-0.8,0.8-1.2l1.8-8.5
		c-0.4-0.2-0.8-0.4-1.3-0.5c-0.5-0.1-1.1-0.1-1.8-0.1c-0.9,0-1.7,0.3-2.4,0.8c-0.7,0.5-1.3,1.2-1.8,2.1s-0.9,1.9-1.1,3.1
		c-0.3,1.2-0.4,2.3-0.4,3.6c0,0.9,0.2,1.7,0.5,2.3C140.4,139.5,140.9,139.8,141.7,139.8z"/>
	<path fill="#FFFFFF" d="M164.6,139.9c-0.8,0.7-1.7,1.2-2.7,1.5c-1,0.3-2.1,0.5-3.1,0.5c-1.7,0-3.1-0.5-3.9-1.5
		c-0.9-1-1.3-2.4-1.3-4.2s0.3-3.4,0.8-4.8c0.5-1.4,1.2-2.6,2-3.6c0.8-1,1.7-1.7,2.8-2.3c1-0.5,2.1-0.8,3.2-0.8c0.8,0,1.5,0.1,2,0.3
		c0.6,0.2,1.1,0.5,1.4,0.9c0.4,0.4,0.6,0.8,0.8,1.2c0.2,0.5,0.3,1,0.3,1.5c0,1.5-0.8,2.8-2.3,3.6c-1.5,0.9-3.7,1.3-6.6,1.3
		c-0.3,0-0.5,0-0.8,0c-0.3,0-0.6,0-0.9,0c-0.1,0.4-0.2,0.8-0.2,1.2c0,0.4-0.1,0.7-0.1,1c0,1.2,0.3,2.2,0.8,2.9
		c0.5,0.8,1.4,1.1,2.6,1.1c1,0,1.8-0.2,2.6-0.5c0.8-0.3,1.4-0.6,1.8-1L164.6,139.9z M161.8,126.9c-1.2,0-2.2,0.4-3.1,1.2
		c-0.9,0.8-1.6,2-2,3.7c0.8,0,1.7,0,2.6-0.1c0.9,0,1.7-0.2,2.4-0.3c0.7-0.2,1.3-0.5,1.8-0.9c0.5-0.4,0.7-1,0.7-1.7
		c0-0.2,0-0.4-0.1-0.7c-0.1-0.2-0.2-0.4-0.4-0.6c-0.2-0.2-0.4-0.3-0.7-0.5C162.7,126.9,162.3,126.9,161.8,126.9z"/>
	<path fill="#FFFFFF" d="M171.4,137.6c-0.1,0.4-0.1,0.7-0.1,0.9c0,0.4,0.1,0.7,0.2,0.9c0.1,0.2,0.3,0.3,0.6,0.3c0.4,0,0.8,0,1.1-0.1
		s0.6-0.2,1.1-0.3v1.9c-0.2,0.1-0.4,0.2-0.7,0.3s-0.5,0.1-0.8,0.2c-0.3,0-0.5,0.1-0.8,0.1c-0.3,0-0.5,0-0.7,0
		c-0.8,0-1.4-0.2-1.8-0.5c-0.5-0.3-0.7-1-0.7-1.9c0-0.4,0.1-1,0.2-1.6l4.1-19.1h2.5L171.4,137.6z"/>
	<path fill="#FFFFFF" d="M188.6,139.9c-0.8,0.7-1.7,1.2-2.7,1.5c-1,0.3-2.1,0.5-3.1,0.5c-1.7,0-3.1-0.5-3.9-1.5
		c-0.9-1-1.3-2.4-1.3-4.2s0.3-3.4,0.8-4.8c0.5-1.4,1.2-2.6,2-3.6c0.8-1,1.7-1.7,2.8-2.3c1-0.5,2.1-0.8,3.2-0.8c0.8,0,1.5,0.1,2,0.3
		c0.6,0.2,1.1,0.5,1.4,0.9c0.4,0.4,0.6,0.8,0.8,1.2c0.2,0.5,0.3,1,0.3,1.5c0,1.5-0.8,2.8-2.3,3.6c-1.5,0.9-3.7,1.3-6.6,1.3
		c-0.3,0-0.5,0-0.8,0c-0.3,0-0.6,0-0.9,0c-0.1,0.4-0.2,0.8-0.2,1.2c0,0.4-0.1,0.7-0.1,1c0,1.2,0.3,2.2,0.8,2.9
		c0.5,0.8,1.4,1.1,2.6,1.1c1,0,1.8-0.2,2.6-0.5c0.8-0.3,1.4-0.6,1.8-1L188.6,139.9z M185.8,126.9c-1.2,0-2.2,0.4-3.1,1.2
		c-0.9,0.8-1.6,2-2,3.7c0.8,0,1.7,0,2.6-0.1c0.9,0,1.7-0.2,2.4-0.3c0.7-0.2,1.3-0.5,1.8-0.9c0.5-0.4,0.7-1,0.7-1.7
		c0-0.2,0-0.4-0.1-0.7c-0.1-0.2-0.2-0.4-0.4-0.6c-0.2-0.2-0.4-0.3-0.7-0.5C186.7,126.9,186.3,126.9,185.8,126.9z"/>
	<path fill="#FFFFFF" d="M201.8,141.5l2.2-10.3c0.1-0.4,0.2-0.8,0.2-1.2s0.1-0.7,0.1-1c0-0.6-0.1-1.1-0.4-1.5s-0.8-0.6-1.7-0.6
		c-0.6,0-1.1,0.1-1.7,0.4c-0.5,0.3-1.1,0.6-1.5,1c-0.5,0.4-0.9,0.9-1.3,1.3c-0.4,0.5-0.7,1-1,1.5l-2.2,10.5h-2.5l3.5-16.4h1.7
		l-0.1,2.8h0.1c0.3-0.3,0.6-0.7,1-1.1c0.4-0.4,0.8-0.7,1.3-1c0.5-0.3,1-0.6,1.7-0.8c0.6-0.2,1.3-0.3,2-0.3c1.1,0,2,0.3,2.6,0.8
		c0.6,0.5,0.9,1.4,0.9,2.7c0,0.7-0.1,1.4-0.3,2.4l-2.3,10.9H201.8z"/>
	<path fill="#FFFFFF" d="M222.2,134.8l0.3,3.1h0.1l1.4-3.2l5.5-9.5h2.8l-10.2,16.7h-1l-3.2-16.7h2.6L222.2,134.8z"/>
	<path fill="#FFFFFF" d="M243.5,135.1c-0.2,0.8-0.3,1.6-0.4,2.5c-0.1,0.8-0.1,1.6-0.1,2.3c0,0.3,0,0.6,0,0.9c0,0.3,0,0.6,0.1,0.8
		h-1.8l-0.5-2.8h-0.1c-0.3,0.4-0.6,0.7-1,1.1c-0.4,0.4-0.8,0.7-1.3,1s-0.9,0.6-1.5,0.7c-0.5,0.2-1.1,0.3-1.7,0.3
		c-2.6,0-3.9-1.7-3.9-5.1c0-1.4,0.2-2.8,0.5-4.3s0.9-2.7,1.7-3.9c0.8-1.2,1.7-2.1,2.9-2.8c1.2-0.7,2.6-1.1,4.3-1.1
		c0.6,0,1.4,0.1,2.2,0.2c0.9,0.1,1.7,0.3,2.5,0.6L243.5,135.1z M236.1,139.8c0.5,0,1-0.1,1.5-0.4c0.5-0.3,0.9-0.6,1.4-0.9
		c0.4-0.4,0.8-0.8,1.1-1.2c0.3-0.4,0.6-0.8,0.8-1.2l1.8-8.8c-0.7-0.3-1.5-0.5-2.5-0.5c-1,0-1.9,0.3-2.6,0.9
		c-0.8,0.6-1.4,1.4-1.9,2.3c-0.5,0.9-0.9,2-1.2,3.2c-0.3,1.2-0.4,2.4-0.4,3.6c0,0.8,0.2,1.5,0.5,2.1
		C234.9,139.6,235.4,139.8,236.1,139.8z"/>
	<path fill="#FFFFFF" d="M256.7,141.5l2.2-10.3c0.1-0.4,0.2-0.8,0.2-1.2s0.1-0.7,0.1-1c0-0.6-0.1-1.1-0.4-1.5s-0.8-0.6-1.7-0.6
		c-0.6,0-1.1,0.1-1.7,0.4c-0.5,0.3-1.1,0.6-1.5,1c-0.5,0.4-0.9,0.9-1.3,1.3c-0.4,0.5-0.7,1-1,1.5l-2.2,10.5h-2.5l3.5-16.4h1.7
		l-0.1,2.8h0.1c0.3-0.3,0.6-0.7,1-1.1c0.4-0.4,0.8-0.7,1.3-1c0.5-0.3,1-0.6,1.7-0.8c0.6-0.2,1.3-0.3,2-0.3c1.1,0,2,0.3,2.6,0.8
		c0.6,0.5,0.9,1.4,0.9,2.7c0,0.7-0.1,1.4-0.3,2.4l-2.3,10.9H256.7z"/>
	<path fill="#FFFFFF" d="M284.4,139.9c-0.8,0.7-1.7,1.2-2.7,1.5c-1,0.3-2.1,0.5-3.1,0.5c-1.7,0-3.1-0.5-3.9-1.5
		c-0.9-1-1.3-2.4-1.3-4.2s0.3-3.4,0.8-4.8c0.5-1.4,1.2-2.6,2-3.6c0.8-1,1.7-1.7,2.8-2.3c1-0.5,2.1-0.8,3.2-0.8c0.8,0,1.5,0.1,2,0.3
		c0.6,0.2,1.1,0.5,1.4,0.9c0.4,0.4,0.6,0.8,0.8,1.2c0.2,0.5,0.3,1,0.3,1.5c0,1.5-0.8,2.8-2.3,3.6c-1.5,0.9-3.7,1.3-6.6,1.3
		c-0.3,0-0.5,0-0.8,0c-0.3,0-0.6,0-0.9,0c-0.1,0.4-0.2,0.8-0.2,1.2s-0.1,0.7-0.1,1c0,1.2,0.3,2.2,0.8,2.9c0.5,0.8,1.4,1.1,2.6,1.1
		c1,0,1.8-0.2,2.6-0.5c0.8-0.3,1.4-0.6,1.8-1L284.4,139.9z M281.6,126.9c-1.2,0-2.2,0.4-3.1,1.2c-0.9,0.8-1.6,2-2,3.7
		c0.8,0,1.7,0,2.6-0.1c0.9,0,1.7-0.2,2.4-0.3c0.7-0.2,1.3-0.5,1.8-0.9s0.7-1,0.7-1.7c0-0.2,0-0.4-0.1-0.7c-0.1-0.2-0.2-0.4-0.4-0.6
		c-0.2-0.2-0.4-0.3-0.7-0.5C282.5,126.9,282.1,126.9,281.6,126.9z"/>
	<path fill="#FFFFFF" d="M298.7,127.3c-0.2,0-0.4-0.1-0.6-0.1s-0.4,0-0.6,0c-1.1,0-2.1,0.3-2.9,1c-0.8,0.7-1.4,1.5-1.9,2.6
		l-2.3,10.7H288l3.5-16.4h1.7v2.8h0.1c0.3-0.4,0.5-0.8,0.9-1.2c0.3-0.4,0.6-0.7,1-1c0.4-0.3,0.8-0.5,1.2-0.7
		c0.4-0.2,0.9-0.2,1.4-0.2c0.5,0,1,0.1,1.5,0.2L298.7,127.3z"/>
	<path fill="#FFFFFF" d="M303.8,134.8l0.3,3.1h0.1l1.4-3.2l5.5-9.5h2.8l-10.2,16.7h-1l-3.2-16.7h2.6L303.8,134.8z"/>
	<path fill="#FFFFFF" d="M325.1,135.1c-0.2,0.8-0.3,1.6-0.4,2.5c-0.1,0.8-0.1,1.6-0.1,2.3c0,0.3,0,0.6,0,0.9c0,0.3,0,0.6,0.1,0.8
		h-1.8l-0.5-2.8h-0.1c-0.3,0.4-0.6,0.7-1,1.1c-0.4,0.4-0.8,0.7-1.3,1s-0.9,0.6-1.5,0.7c-0.5,0.2-1.1,0.3-1.7,0.3
		c-2.6,0-3.9-1.7-3.9-5.1c0-1.4,0.2-2.8,0.5-4.3c0.4-1.4,0.9-2.7,1.7-3.9c0.8-1.2,1.7-2.1,2.9-2.8c1.2-0.7,2.6-1.1,4.3-1.1
		c0.6,0,1.4,0.1,2.2,0.2c0.9,0.1,1.7,0.3,2.5,0.6L325.1,135.1z M317.7,139.8c0.5,0,1-0.1,1.5-0.4c0.5-0.3,0.9-0.6,1.4-0.9
		c0.4-0.4,0.8-0.8,1.1-1.2c0.3-0.4,0.6-0.8,0.8-1.2l1.8-8.8c-0.7-0.3-1.5-0.5-2.5-0.5c-1,0-1.9,0.3-2.7,0.9
		c-0.8,0.6-1.4,1.4-1.9,2.3c-0.5,0.9-0.9,2-1.2,3.2c-0.3,1.2-0.4,2.4-0.4,3.6c0,0.8,0.2,1.5,0.5,2.1
		C316.5,139.6,317,139.8,317.7,139.8z"/>
	<path fill="#FFFFFF" d="M339.4,127.3c-0.2,0-0.4-0.1-0.6-0.1s-0.4,0-0.6,0c-1.1,0-2.1,0.3-2.9,1c-0.8,0.7-1.4,1.5-1.9,2.6
		l-2.3,10.7h-2.5l3.5-16.4h1.7v2.8h0.1c0.3-0.4,0.5-0.8,0.9-1.2c0.3-0.4,0.6-0.7,1-1c0.4-0.3,0.8-0.5,1.2-0.7
		c0.4-0.2,0.9-0.2,1.4-0.2c0.5,0,1,0.1,1.5,0.2L339.4,127.3z"/>
	<path fill="#FFFFFF" d="M343.4,125.2h2.5l-3.5,16.4H340L343.4,125.2z M344,120.2c0-0.5,0.2-0.9,0.5-1.3c0.3-0.3,0.8-0.5,1.3-0.5
		s0.9,0.2,1.3,0.5c0.3,0.3,0.5,0.8,0.5,1.3s-0.2,0.9-0.5,1.3c-0.3,0.3-0.8,0.5-1.3,0.5s-0.9-0.2-1.3-0.5
		C344.1,121.1,344,120.7,344,120.2z"/>
	<path fill="#FFFFFF" d="M357.5,141.5l2.2-10.3c0.1-0.4,0.2-0.8,0.2-1.2s0.1-0.7,0.1-1c0-0.6-0.1-1.1-0.4-1.5
		c-0.3-0.4-0.8-0.6-1.7-0.6c-0.6,0-1.1,0.1-1.7,0.4c-0.5,0.3-1.1,0.6-1.5,1c-0.5,0.4-0.9,0.9-1.3,1.3c-0.4,0.5-0.7,1-1,1.5
		l-2.2,10.5h-2.5l3.5-16.4h1.7l-0.1,2.8h0.1c0.3-0.3,0.6-0.7,1-1.1c0.4-0.4,0.8-0.7,1.3-1c0.5-0.3,1-0.6,1.7-0.8s1.3-0.3,2-0.3
		c1.1,0,2,0.3,2.6,0.8c0.6,0.5,0.9,1.4,0.9,2.7c0,0.7-0.1,1.4-0.3,2.4l-2.3,10.9H357.5z"/>
	<path fill="#FFFFFF" d="M376.3,142.3c-0.5,2.1-1.2,3.7-2.4,4.7c-1.1,1-2.6,1.5-4.5,1.5c-1.4,0-2.6-0.2-3.5-0.5
		c-0.9-0.4-1.6-0.7-2.1-0.9l1.1-1.8c0.2,0.1,0.4,0.2,0.6,0.3c0.3,0.1,0.6,0.3,0.9,0.4s0.8,0.2,1.3,0.3c0.5,0.1,1.1,0.1,1.8,0.1
		c1.1,0,2-0.4,2.7-1.2c0.7-0.8,1.3-2,1.7-3.7l0.6-2.7h-0.1c-0.3,0.4-0.6,0.8-1,1.2c-0.4,0.4-0.8,0.7-1.2,1c-0.4,0.3-0.9,0.5-1.4,0.7
		c-0.5,0.2-1.1,0.3-1.7,0.3c-1.2,0-2.1-0.4-2.8-1.3s-1.1-2.1-1.1-3.6c0-1.5,0.2-2.9,0.6-4.4s1-2.7,1.8-3.9c0.8-1.1,1.8-2.1,2.9-2.8
		c1.2-0.7,2.5-1.1,4-1.1c1.2,0,2.2,0.1,3,0.3s1.5,0.4,2.1,0.7L376.3,142.3z M370.2,139.8c0.5,0,1.1-0.1,1.6-0.4
		c0.5-0.3,1-0.6,1.5-1.1c0.4-0.4,0.9-0.9,1.2-1.5c0.4-0.5,0.7-1,0.9-1.5l1.7-7.9c-0.3-0.2-0.8-0.3-1.3-0.4s-1-0.1-1.5-0.1
		c-0.9,0-1.7,0.3-2.5,0.8c-0.8,0.5-1.4,1.2-2,2.1c-0.6,0.9-1,1.9-1.3,3.1c-0.3,1.2-0.5,2.4-0.5,3.6c0,1,0.2,1.8,0.6,2.4
		C369,139.5,369.5,139.8,370.2,139.8z"/>
</g>
<ellipse opacity="0.2" fill="#FFFFFF" cx="51.1" cy="140" rx="45.8" ry="9.4"/>
<g>
	<path fill="#FFFFFF" d="M100.6,63.6c1-4,1.6-8.2,1.6-12.5C102.1,22.9,79.3,0,51.1,0C22.9,0,0,22.9,0,51.1c0,4.3,0.5,8.5,1.6,12.5h0
		c3.9,22.9,49.5,76.5,49.5,76.5S75.8,111,90.4,86.6L68.5,71.7c-4.7,4-10.8,6.4-17.4,6.4c-14.9,0-27-12.1-27-27c0-14.9,12.1-27,27-27
		c14.9,0,27,12.1,27,27c0,5.2-1.5,10.1-4.1,14.2l20.5,13.9C97.7,73.3,99.9,67.9,100.6,63.6L100.6,63.6z"/>
</g>
<path fill="#FFFFFF" d="M51.1,32.1c-10.5,0-19,8.5-19,19s8.5,19,19,19c10.5,0,19-8.5,19-19S61.6,32.1,51.1,32.1z M57.8,53.2h-4.6
	v4.6c0,1.2-0.9,2.1-2.1,2.1S49,59,49,57.8v-4.6h-4.6c-1.2,0-2.1-0.9-2.1-2.1s0.9-2.1,2.1-2.1H49v-4.6c0-1.2,0.9-2.1,2.1-2.1
	s2.1,0.9,2.1,2.1V49h4.6c1.2,0,2.1,0.9,2.1,2.1S59,53.2,57.8,53.2z"/>
</svg>
